<svg width="450" height="201" viewBox="0 0 450 201" fill="none" xmlns="http://www.w3.org/2000/svg">
<path d="M139.388 200.574V3.9236H144.721V34.8569C145.351 33.4853 145.932 32.0283 146.462 30.4964C150.916 12.0132 160.311 0.348129 170.569 0.578529C182.729 -0.146804 192.61 8.85587 198.417 30.4964C202.112 43.9404 204.146 58.9574 204.348 74.2936C204.55 89.6298 202.914 104.84 199.578 118.654C194.167 142.906 180.804 154.964 166.498 150.535C162.046 149.778 157.759 146.803 154.03 141.881C150.3 136.959 147.247 130.247 145.148 122.358V200.566L139.388 200.574ZM144.721 73.4873L145.916 96.5785C148.023 122.861 155.793 138.392 167.991 141.31C173.72 143.194 179.598 141.046 184.623 135.233C189.648 129.419 193.51 120.3 195.55 109.43C200.294 86.8164 199.945 61.2164 194.611 39.1321C192.434 29.3877 188.73 21.3254 184.059 16.1635C179.389 11.0016 174.005 9.02059 168.721 10.5199C163.762 11.2415 159.038 15.0342 155.205 21.3714C151.373 27.7086 148.623 36.2754 147.337 45.882C146.201 54.973 145.327 64.1871 144.721 73.4788V73.4873ZM313.246 100.214C312.437 114.06 309.141 126.847 303.972 136.197C298.802 145.548 292.111 150.825 285.141 151.047C262.775 153.3 252.279 123.595 250.611 89.3167C249.451 70.7017 250.962 51.8108 254.967 34.8484C257.755 23.2123 262.323 13.6533 268.009 7.5563C273.695 1.4593 280.203 -0.859102 286.592 0.936928C292.665 1.96941 298.423 6.79584 303.049 14.7332C307.676 22.6705 310.937 33.3167 312.371 45.1652C313.507 55.9585 314.343 66.8694 314.876 77.8479H256.137C255.049 108.926 263.398 133.912 275.234 139.936C289.975 147.19 302.575 134.415 307.149 106.383C308.164 99.1897 310.016 98.1743 313.284 100.214H313.246ZM256.094 67.898H308.634C308.305 34.7887 297.997 10.7247 284.015 10.4516C268.228 9.93959 256.781 33.0393 256.094 67.898ZM324.105 100.939H329.254C329.444 108.527 330.676 115.864 332.815 122.142C334.954 128.42 337.918 133.396 341.38 136.523C345.727 140.436 350.46 142.337 355.225 142.086C359.991 141.835 364.666 139.438 368.905 135.072C371.215 132.992 373.15 129.543 374.449 125.192C375.747 120.842 376.347 115.798 376.166 110.744C376.299 105.869 375.634 101.041 374.271 96.9911C372.908 92.9411 370.922 89.8903 368.614 88.3012C362.948 84.0857 356.924 81.7647 351.151 78.0612C345.144 74.6407 339.27 70.3455 333.577 65.21C324.275 56.1305 323.699 20.7684 334.229 9.57267C339.621 3.48763 345.689 0.199724 351.879 0.00893308C358.07 -0.181858 364.185 2.73054 369.668 8.4804C376.469 15.9897 380.228 31.1535 379.11 46.5391H374.694C374.694 46.1124 374.293 45.7369 374.293 45.3017C373.747 17.1417 361.911 8.33532 349.205 10.81C345.365 11.6633 341.726 13.9844 338.313 17.4148C336.261 19.2889 334.551 22.3921 333.419 26.2951C332.288 30.1982 331.791 34.7079 331.998 39.2004C332.002 43.6962 332.703 48.079 334.003 51.7463C335.303 55.4136 337.14 58.1853 339.26 59.6804C344.806 63.7508 350.694 66.362 356.433 69.5535L370.3 76.8068C373.451 78.8758 376.215 82.8095 378.225 88.0876C380.234 93.3657 381.396 99.7396 381.555 106.366C382.665 121.257 378.867 135.892 372.151 142.676C360.026 156.397 340.053 152.771 331.157 135.422C326.605 126.266 324.066 113.833 324.117 100.931L324.105 100.939ZM446.899 46.5476H442.069C442.069 45.242 441.813 43.9876 441.741 42.9892C441.664 35.7484 440.344 28.7808 438.004 23.2545C435.663 17.7282 432.444 13.9792 428.885 12.6361C422.173 8.78565 415.013 9.47558 408.516 14.5988C405.948 16.0691 403.686 19.1627 402.069 23.4172C400.453 27.6718 399.568 32.8585 399.548 38.202C399.456 43.4488 400.273 48.5981 401.86 52.7791C403.448 56.9602 405.708 59.9165 408.26 61.1481L430.336 72.4804C432.723 73.6255 435.074 75.056 437.376 76.7641C444.416 81.8841 449.195 94.9572 449.408 109.899C449.514 117.213 448.51 124.419 446.531 130.572C444.551 136.725 441.687 141.536 438.315 144.374C433.191 149.029 427.637 151.492 422.01 151.605C416.383 151.718 410.806 149.479 405.636 145.031C401.385 141.364 397.797 135.181 395.356 127.313C392.915 119.445 391.738 110.271 391.983 101.024H396.702C398.477 118.134 404.352 132.384 412.412 139.126C420.471 145.867 429.675 144.212 437.005 134.723C439.204 132.435 441.03 128.935 442.265 124.637C443.501 120.339 444.095 115.423 443.977 110.471C444.086 105.593 443.397 100.777 442.014 96.7528C440.631 92.7288 438.63 89.7167 436.314 88.1732C430.647 83.9577 424.623 81.7135 418.85 77.9332C412.809 74.5654 406.9 70.3187 401.169 65.2271C392.09 56.2927 391.364 21.2207 401.715 10.0335C407.174 3.69305 413.36 0.286819 419.672 0.146254C425.984 0.005689 432.207 3.13558 437.734 9.23133C440.896 13.0052 443.441 18.5364 445.059 25.1512C446.677 31.7661 447.299 39.1792 446.848 46.4879L446.899 46.5476ZM130.611 147.497C128.71 148.935 126.611 148.931 124.712 147.486C122.812 146.041 121.242 143.256 120.299 139.655L101.525 87.7295L98.8032 80.4761L77.0176 139.732C76.1297 143.178 74.6448 145.859 72.8405 147.276C71.0362 148.692 69.0357 148.747 67.2128 147.429L95.2789 72.122L69.1669 4.07719C73.0411 1.27826 77.3589 4.31613 79.5136 11.3305L98.9696 63.8959L118.541 11.5353C119.435 8.14832 120.921 5.53702 122.716 4.19808C124.51 2.85914 126.488 2.88597 128.273 4.27347L118.14 31.162L104.414 66.8911C104.033 67.5714 103.728 68.4051 103.519 69.3374C103.311 70.2697 103.203 71.2797 103.203 72.3012C103.203 73.3227 103.311 74.3326 103.519 75.265C103.728 76.1973 104.033 77.0309 104.414 77.7113L130.556 147.497H130.611ZM249.779 3.35187V13.5919C246.107 13.1101 242.425 14.1738 238.97 16.7142C235.516 19.2546 232.367 23.2152 229.725 28.3406C227.084 33.4659 225.009 39.6421 223.635 46.4703C222.261 53.2986 221.618 60.6273 221.747 67.9833C221.747 91.8994 221.747 115.816 221.747 139.732V147.864H216.555V3.99186H221.675V33.4745C227.955 11.9705 237.649 3.99187 249.813 3.4116L249.779 3.35187ZM0.00853475 71.1833L2.29547 48.5956C8.576 3.93213 34.176 -14.6535 51.7888 13.0116C62.1013 29.2079 64.6741 52.154 64.1707 78.01H6.07147C5.1328 124.192 21.7941 152.079 43.1061 137.846C50.1291 132.726 55.4155 121.052 57.1563 106.545C58.2827 99.2921 60.1429 98.0463 63.5477 100.145C62.9799 108.987 61.4171 117.456 58.9769 124.916C56.5366 132.375 53.2825 138.631 49.4592 143.213C43.1426 150.122 35.8955 152.86 28.7542 151.034C21.6128 149.209 14.9429 142.914 9.69813 133.05C4.50987 121.385 1.37813 106.639 0.768001 91.066C0.768001 88.506 0.341334 86.1167 0.0426676 83.8127C0.0142232 79.5062 0 75.2964 0 71.1833H0.00853475ZM6.144 68.0601H58.6837C58.3552 34.5839 47.7909 10.8356 33.7024 10.6137C18.0181 10.1871 6.7968 33.4148 6.1056 67.9151L6.144 68.0601Z" fill="black"/>
</svg>
