<svg width="511" height="205" viewBox="0 0 511 205" fill="none" xmlns="http://www.w3.org/2000/svg">
<path fill-rule="evenodd" clip-rule="evenodd" d="M476.509 85.2732C476.051 85.4032 475.593 86.8319 475.593 87.6107C475.501 92.8043 475.409 106.569 475.409 115.918C475.409 116.178 475.683 116.696 475.959 116.696C477.335 116.826 480.637 116.956 483.481 116.956C487.425 116.956 489.718 116.178 491.003 115.399C494.305 113.062 495.864 107.997 495.864 102.413C495.864 89.8181 489.626 85.0132 480.362 85.0132C479.72 84.8844 477.886 84.8844 476.509 85.2732ZM500.175 143.316C500.175 130.461 493.479 123.319 481.371 123.319C480.821 123.319 476.968 123.189 476.051 123.449C475.776 123.579 475.409 123.839 475.409 124.229C475.409 133.447 475.317 148.122 475.593 153.833C475.776 156.301 477.06 159.807 478.619 160.846C480.269 162.145 484.032 162.404 486.599 162.404C493.847 162.404 500.175 156.691 500.175 143.316ZM457.797 78.1321C458.714 78.1321 461.466 78.5209 468.529 78.5209C475.225 78.5209 480.546 78.2621 487.058 78.2621C495.038 78.2621 506.046 82.2869 506.046 99.1667C506.046 107.478 501.918 114.1 496.505 117.346C496.231 117.476 496.231 117.735 496.505 117.865C504.211 120.593 511 127.345 511 140.07C511 152.536 505.496 160.456 497.515 165.391C492.654 168.377 486.599 169.415 480.453 169.415C475.776 169.415 463.209 168.637 456.237 168.897C455.504 168.508 456.88 163.832 457.522 163.054C459.173 162.923 460.457 162.793 462.2 162.014C464.677 161.106 464.952 160.066 465.319 154.743C465.503 150.198 465.503 134.096 465.503 122.67C465.503 106.958 465.594 96.3105 465.503 91.1169C465.41 87.0919 464.401 85.7931 462.383 85.0132C460.824 84.6244 458.255 84.1045 456.146 83.7157C455.687 83.0658 457.246 78.6507 457.797 78.1321ZM404.869 158.898C407.072 161.365 411.382 162.404 415.235 162.404C420.189 162.404 425.142 161.106 429.911 155.002C434.774 148.77 438.168 139.161 438.168 123.839C438.168 109.165 434.222 97.2192 426.151 90.208C421.565 86.1819 415.693 84.4944 408.906 84.4944C406.888 84.4944 404.961 84.6244 403.769 85.4032C403.494 85.6631 402.852 86.8319 402.852 87.4807C402.668 90.078 402.668 110.074 402.668 121.761C402.668 133.837 402.668 150.718 402.852 152.665C402.852 154.614 403.494 157.6 404.869 158.898ZM384.047 78.1321C385.791 78.1321 392.486 78.5209 395.697 78.5209C401.476 78.5209 405.603 78.1321 416.519 78.1321C425.692 78.1321 433.397 81.6383 438.901 88.2594C445.597 96.4405 449.083 107.738 449.083 121.501C449.083 141.109 442.754 152.406 436.424 158.898C430.095 165.52 421.839 169.415 410.099 169.415C403.862 169.415 393.129 169.156 384.231 169.025H384.14C383.68 167.857 384.873 163.313 385.607 163.183C387.991 162.793 388.633 162.664 389.826 162.014C391.753 160.975 392.119 159.547 392.395 154.743C392.67 145.783 392.578 135.006 392.578 122.8C392.578 114.1 392.67 97.0893 392.486 91.6356C392.212 87.0919 390.836 85.9232 388.084 85.1432C386.708 84.7544 384.873 84.2345 382.305 83.8457C381.938 82.9358 383.589 78.9108 384.047 78.1321Z" fill="#8E714E"/>
<path fill-rule="evenodd" clip-rule="evenodd" d="M272.146 163.357C269.84 162.966 268.179 162.446 266.149 161.144C265.873 160.883 265.411 159.583 265.411 159.061C265.226 154.507 265.226 141.493 265.226 132.775C265.226 125.747 264.397 119.631 262.274 115.337C259.784 110.391 256.186 107.528 251.574 107.528C247.514 107.528 242.072 111.433 237.552 116.899C237.46 117.028 236.721 117.94 236.814 116.508C236.814 115.076 236.998 112.213 237.091 110.262C237.183 108.439 236.445 107.528 236.445 107.528C233.492 109.61 225.19 112.344 222.146 112.733C219.932 113.385 219.379 116.378 221.685 117.419H221.777C224.267 118.46 225.928 119.631 227.219 120.802C228.142 121.843 228.05 123.275 228.05 124.446C228.142 134.206 228.142 149.172 227.866 157.371C227.773 160.624 227.128 161.794 225.467 162.315L225.651 162.185C224.36 162.576 223.345 162.966 221.776 163.226C221.223 164.007 221.223 168.171 221.776 169.082C222.792 169.082 228.142 168.692 232.57 168.692C238.659 168.692 241.795 169.082 243.364 169.082C244.01 168.042 244.195 164.137 243.825 163.226C242.072 163.096 240.781 162.837 239.582 162.315C237.921 161.794 237.46 160.624 237.367 157.891C237.183 150.994 237.183 136.419 237.183 126.528C237.183 123.795 237.737 122.493 238.29 121.713C240.411 119.111 243.825 117.288 246.869 117.288C249.821 117.288 251.759 118.59 253.235 120.282C255.264 122.624 255.91 126.007 256.186 128.48C256.647 134.076 256.463 145.139 256.463 154.767C256.463 159.972 256.187 161.274 254.803 161.924C254.157 162.315 252.497 162.837 250.558 163.096C249.914 164.007 250.098 168.042 250.558 168.953C253.235 168.953 256.371 168.562 260.984 168.562C266.703 168.562 270.394 168.953 271.869 168.953C272.33 168.171 272.516 164.398 272.146 163.357ZM297.699 113.645C292.81 113.645 289.766 118.981 289.766 127.309C289.766 135.767 292.44 145.528 300.006 145.528C301.297 145.528 303.695 144.747 304.802 142.926C306.555 140.584 307.755 135.898 307.755 130.953C307.755 120.152 303.971 113.645 297.699 113.645ZM297.053 171.165C295.208 171.165 293.917 171.945 293.087 172.597C289.211 176.109 287.46 179.492 287.46 183.528C287.46 187.301 288.474 190.294 290.689 192.898C293.363 196.151 297.053 197.712 301.758 197.712C311.168 197.712 315.32 190.554 315.32 183.528C315.32 178.583 313.566 175.329 309.968 173.507C307.385 171.945 302.681 171.165 297.053 171.165ZM297.699 205C292.072 205 288.013 203.308 284.508 199.534C281.094 195.89 279.619 190.424 279.619 186.651C279.619 185.61 279.803 182.746 281.464 180.144C282.478 178.583 284.692 175.589 289.95 170.515C290.134 170.384 290.227 170.254 290.227 169.993C290.227 169.732 290.042 169.473 289.858 169.343C285.522 167.001 284.231 163.226 283.861 161.144V160.883C283.77 160.104 283.585 159.322 284.415 158.541C285.061 157.891 285.983 157.11 286.998 156.2C288.567 154.899 290.227 153.466 291.242 152.295C291.427 152.034 291.427 151.775 291.427 151.514C291.427 151.253 291.242 150.994 291.057 150.864C284.6 147.87 281.371 141.103 281.371 130.953C281.371 124.316 283.492 118.329 287.275 114.556C289.858 111.692 296.315 108.18 300.559 108.18H300.836C305.172 108.309 307.57 109.61 310.983 111.303C312.828 112.213 314.581 112.603 316.98 112.603C320.578 112.603 322.145 111.042 323.437 109.221C323.529 109.48 323.714 110.131 323.807 111.823C323.899 113.515 323.529 115.987 322.606 117.809C321.868 119.24 320.209 120.282 318.548 120.282H318.087C316.426 120.022 315.687 119.761 315.687 119.761L315.32 120.022C315.227 120.282 315.319 120.542 315.411 120.933L315.503 121.193C315.687 122.364 316.057 125.877 316.057 126.789C316.057 137.46 313.013 142.143 309.784 145.658C306.647 148.911 303.05 150.994 298.991 151.514C298.898 151.514 298.53 151.514 297.699 151.645C297.238 151.645 296.592 151.775 296.5 151.775H296.408C295.669 152.034 293.825 153.336 293.825 155.549C293.825 157.5 294.655 159.843 298.621 160.233C299.452 160.363 300.282 160.363 301.204 160.494C306.463 161.013 313.013 161.665 316.057 163.096C320.3 165.309 322.976 170.643 322.976 177.022C322.976 186.651 318.087 195.631 309.968 201.225C306.002 203.698 302.035 205 297.699 205ZM350.283 114.296C348.344 114.296 346.592 114.946 345.3 116.247C341.703 119.37 339.857 125.618 339.857 134.726C339.857 151.775 345.946 163.748 354.617 163.748C357.201 163.748 359.231 162.707 360.983 160.624C363.658 157.5 365.043 151.253 365.043 142.535C365.043 125.618 359.046 114.296 350.283 114.296ZM351.943 169.993C336.26 169.993 330.632 153.727 330.632 138.501C330.632 127.83 333.676 119.631 339.765 113.774C344.102 110.001 349.267 107.919 353.879 107.919C365.871 107.919 374.268 120.022 374.268 137.46C374.268 149.301 370.946 158.671 364.581 164.398C361.537 167.26 356.28 169.993 351.943 169.993ZM187.553 114.296C185.614 114.296 183.863 114.946 182.57 116.247C178.973 119.37 177.127 125.618 177.127 134.726C177.127 151.775 183.216 163.748 191.888 163.748C194.471 163.748 196.501 162.707 198.253 160.624C200.928 157.5 202.313 151.253 202.313 142.535C202.313 125.618 196.408 114.296 187.553 114.296ZM189.213 169.993C173.53 169.993 167.902 153.727 167.902 138.501C167.902 127.83 170.947 119.631 177.035 113.774C181.372 110.001 186.537 107.919 191.15 107.919C203.142 107.919 211.538 120.022 211.538 137.46C211.538 149.301 208.216 158.671 201.851 164.398C198.899 167.26 193.641 169.993 189.213 169.993ZM83.7706 168.692C83.5859 168.302 83.4013 167.131 83.4935 165.699C83.4935 164.659 83.6783 164.007 83.7706 163.748C85.7075 163.357 86.7224 162.966 87.829 162.576C89.6743 161.924 90.4123 160.494 90.5047 157.241C90.7817 149.433 90.7817 134.596 90.6894 124.316V124.056C90.6894 122.884 90.6894 121.452 89.6743 120.411C88.1984 119.111 86.4454 117.94 84.1392 117.028C83.3089 116.638 82.7556 115.987 82.8479 115.206C82.8479 114.426 83.4013 113.515 84.6009 113.255C87.6451 112.864 95.578 110.131 98.7146 108.18C98.8993 108.439 99.1763 109.221 99.1763 110.262L99.084 111.692C98.9917 113.124 98.8993 114.817 98.8993 116.508C98.8993 117.028 99.2687 117.419 99.6373 117.419C99.822 117.419 100.007 117.288 100.191 117.158C106.095 110.651 111.445 108.309 114.213 108.309C118.734 108.309 122.239 111.303 124.915 117.549C125.098 117.94 125.283 118.069 125.56 118.069C125.745 118.069 126.021 117.94 126.114 117.679C131.556 111.823 136.999 108.309 140.597 108.309C149.176 108.309 154.25 117.288 154.25 132.514C154.25 136.808 154.25 142.404 154.158 147.481C154.158 152.034 154.065 156.2 154.065 159.193C154.065 159.843 154.711 161.924 155.725 162.315C157.017 163.226 158.77 163.616 161.077 164.137H161.169C161.354 165.048 160.984 168.431 160.616 169.082C160.061 169.082 159.231 169.082 158.31 168.953C156.556 168.821 154.065 168.692 151.298 168.692C145.578 168.692 142.626 168.821 139.766 169.082C139.582 168.042 139.49 164.918 139.766 164.137C141.426 163.748 142.257 163.357 143.272 162.966C145.117 162.185 145.578 161.013 145.671 157.63C145.671 155.158 146.039 134.076 145.486 129C144.933 123.795 142.165 117.679 136.076 117.679C133.77 117.679 130.172 118.981 126.666 122.754C126.482 123.015 126.298 123.665 126.298 124.056V124.186C126.666 126.918 126.666 130.042 126.666 134.857V143.315C126.666 149.172 126.574 154.638 126.666 158.802C126.666 161.665 127.866 162.315 128.882 162.837C129.434 162.966 129.803 163.096 130.265 163.226C131.095 163.487 131.926 163.748 133.217 164.137C133.401 164.659 133.401 166.349 133.124 167.781C133.032 168.562 132.847 168.953 132.756 169.082C129.619 168.953 126.39 168.821 121.686 168.821C120.301 168.821 117.903 168.953 115.873 168.953C114.213 168.953 112.644 169.082 111.722 169.082C111.63 168.821 111.445 167.912 111.445 166.479C111.445 165.309 111.63 164.398 111.815 164.137C112.276 164.007 112.644 163.877 113.106 163.877C114.213 163.616 115.135 163.357 116.058 163.096C117.626 162.446 118.179 161.274 118.272 158.411C118.549 151.905 118.825 133.296 118.179 128.61C117.073 121.063 114.029 117.288 109.139 117.288C106.28 117.288 102.681 119.24 99.7296 122.364C99.2687 122.884 98.8993 124.186 98.8993 125.357V133.035C98.8993 142.404 98.8993 154.117 98.9917 159.193C99.084 160.754 99.4525 162.576 101.575 163.226C102.036 163.357 102.773 163.616 103.696 163.748L105.358 164.137C105.541 164.918 105.45 168.042 105.08 169.082C104.157 169.082 103.051 168.953 101.759 168.953C99.822 168.821 97.331 168.692 94.5639 168.692C91.335 168.692 89.0287 168.821 87.1834 168.953C85.8922 168.692 84.8772 168.692 83.7706 168.692Z" fill="#442D22"/>
<path fill-rule="evenodd" clip-rule="evenodd" d="M34.8016 199.585L31.0126 197.767C31.0126 197.767 31.4752 170.634 24.5438 168.687C19.923 161.157 25.2831 -150.681 41.918 167.648C41.918 167.648 36.1885 171.672 35.1717 178.553C34.0623 185.304 34.8016 199.585 34.8016 199.585Z" fill="white"/>
<path fill-rule="evenodd" clip-rule="evenodd" d="M34.8016 199.585L31.0126 197.767C31.0126 197.767 31.4752 170.634 24.5438 168.687C19.923 161.157 25.2831 -150.681 41.918 167.648C41.918 167.648 36.1885 171.672 35.1717 178.553C34.0623 185.304 34.8016 199.585 34.8016 199.585Z" fill="#A6A385"/>
<path fill-rule="evenodd" clip-rule="evenodd" d="M36.8557 174.057C36.8557 174.057 70.5669 143.402 62.679 79.6207C55.0732 33.2478 37.1369 18.05 35.1653 12.2041C33.0058 8.04756 30.9395 0.773682 30.9395 0.773682L32.3487 129.761C32.3487 129.891 29.437 169.25 36.8557 174.057Z" fill="white"/>
<path fill-rule="evenodd" clip-rule="evenodd" d="M36.8557 174.057C36.8557 174.057 70.5669 143.402 62.679 79.6207C55.0732 33.2478 37.1369 18.05 35.1653 12.2041C33.0058 8.04756 30.9395 0.773682 30.9395 0.773682L32.3487 129.761C32.3487 129.891 29.437 169.25 36.8557 174.057Z" fill="#499D4A"/>
<path fill-rule="evenodd" clip-rule="evenodd" d="M29.1825 175.604C29.1825 175.604 -1.75791 145.708 0.0786404 93.0668C1.82242 40.4241 23.6738 14.5582 27.8966 9.87863C30.6514 5.71946 30.7433 4.15917 30.9272 0C32.8548 5.84958 32.488 87.4775 32.7629 97.0959C33.5892 134.14 31.294 168.586 29.1825 175.604Z" fill="white"/>
<path fill-rule="evenodd" clip-rule="evenodd" d="M29.1825 175.604C29.1825 175.604 -1.75791 145.708 0.0786404 93.0668C1.82242 40.4241 23.6738 14.5582 27.8966 9.87863C30.6514 5.71946 30.7433 4.15917 30.9272 0C32.8548 5.84958 32.488 87.4775 32.7629 97.0959C33.5892 134.14 31.294 168.586 29.1825 175.604Z" fill="#58AA50"/>
</svg>
