<svg width="512" height="264" viewBox="0 0 512 264" fill="none" xmlns="http://www.w3.org/2000/svg">
<path d="M252.517 162.715H299.785V173.935H251.708C251.221 173.935 250.575 174.042 250.088 174.042C244.1 174.583 242.319 175.556 241.511 179.008C241.347 179.548 241.347 179.981 241.347 180.413V188.073C241.347 188.614 241.347 189.047 241.511 189.587C242.32 194.12 245.557 196.166 252.354 196.166H272.75C277.769 196.166 282.946 197.031 287.159 198.652C295.089 201.672 299.139 206.204 299.139 211.061V223.362C299.139 229.3 295.576 233.834 288.293 237.176C283.918 239.227 278.417 240.411 272.749 240.411H224.35V229.191H270.811C271.459 229.191 271.942 229.084 272.591 229.084C275.826 228.867 278.255 228.003 279.71 226.705C281.332 225.416 282.139 223.902 282.139 222.713V212.895C282.139 211.818 281.815 210.845 280.846 209.872C279.228 207.931 276.957 206.961 271.617 206.529C271.131 206.421 270.486 206.421 269.838 206.421H252.353C250.735 206.421 249.118 206.313 247.496 206.204C233.091 204.695 224.512 198.22 224.512 190.664V180.846C224.512 172.213 228.883 167.247 238.919 164.117C242.156 163.147 245.718 162.715 252.517 162.715ZM383.567 237.007L400.151 251.974H380.601L367.186 239.864L353.679 240.721H335.672C332.591 240.721 329.347 240.288 325.779 239.315C315.075 236.396 309.881 230.774 309.881 221.471V181.461C309.881 171.294 317.022 165.127 331.131 163.181C332.591 162.964 334.213 162.857 335.672 162.857H367.631C369.252 162.857 370.712 162.964 372.334 163.181C386.443 165.127 393.58 171.294 393.58 181.461V221.471C393.581 229.717 390.554 234.133 383.567 237.007ZM377.849 182.435C377.849 182.002 377.849 181.461 377.687 180.916C376.714 176.592 372.335 174.104 365.848 174.104H340.381C332.916 174.104 328.055 177.348 328.055 182.434V220.497C328.055 221.038 328.217 221.578 328.375 222.227C329.348 226.88 333.731 229.475 340.381 229.475H355.672L341.624 216.791H361.174L373.429 227.853C375.683 226.647 377.171 224.809 377.687 222.443C377.849 221.907 377.849 221.362 377.849 220.821V182.435ZM109.281 162.822C96.493 158.83 87.912 162.282 84.029 170.915L58.452 228.111L33.686 170.915C29.962 162.282 21.221 158.83 8.43398 162.822C3.09198 164.44 0.500977 167.571 0.500977 174.042V240.412H17.334V173.934L43.398 231.887C46.473 238.903 50.682 241.385 58.936 241.385C67.193 241.385 71.239 238.903 74.316 231.887L100.378 173.934V240.412H117.214V174.042C117.213 167.571 114.623 164.44 109.281 162.822ZM194.508 186.127V229.733C194.213 229.733 162.606 229.808 157.901 229.733C148.679 229.591 147.883 224.918 148.041 222.929V186.301H131.211C131.579 186.667 131.207 223.312 131.219 224.085C131.35 232.443 141.952 239.705 158.599 239.862H194.381V244.274C194.383 246.087 195.662 251.473 184.827 252.621C184.694 252.629 131.669 252.621 131.577 252.621V263.949H184.734C193.165 263.699 211.457 260.513 211.363 245.846C211.361 245.592 211.457 186.125 211.378 186.125H194.508V186.127ZM501.146 229.733L505.212 235.955H502.435L498.73 229.833H496.513V235.955H494.134V221.791H499.656C503.162 221.791 504.983 222.984 504.983 225.862C504.983 228.444 503.328 229.501 501.146 229.733ZM499.058 227.846C500.846 227.846 502.402 227.679 502.402 225.7C502.402 224.046 500.68 223.779 499.257 223.779H496.513V227.846H499.058ZM511.5 228.873C511.5 236.283 505.645 241.277 499.091 241.277C492.545 241.277 486.687 236.283 486.687 228.873C486.687 221.462 492.545 216.468 499.091 216.468C505.645 216.468 511.5 221.462 511.5 228.873ZM508.722 228.873C508.722 223.246 504.422 219.046 499.091 219.046C493.701 219.046 489.464 223.246 489.464 228.873C489.464 234.495 493.701 238.699 499.091 238.699C504.422 238.699 508.722 234.495 508.722 228.873ZM362.063 31.983C359.905 31.943 358.378 32.217 356.765 32.571V32.864H357.06C358.091 34.979 359.909 36.341 361.181 38.163C362.159 40.224 363.14 42.282 364.121 44.34C364.221 44.242 364.32 44.145 364.416 44.047C366.241 42.764 367.073 40.71 367.065 37.574C366.333 36.804 366.224 35.842 365.592 34.925C364.754 33.702 363.124 33.011 362.063 31.983ZM504.48 182.938C505.869 183.957 506.8 185.537 508.601 186.177C508.601 186.077 508.601 185.978 508.601 185.882C507.653 184.68 507.412 183.021 506.542 181.761C505.27 180.489 503.988 179.212 502.716 177.935C498.974 172.97 494.229 168.612 489.181 164.99C485.16 162.099 476.148 158.199 474.468 153.516C474.372 153.416 474.272 153.317 474.172 153.217C477.025 152.897 480.368 151.865 483.001 151.158C487.425 149.972 491.38 150.28 495.946 149.099C498.009 148.508 500.067 147.918 502.126 147.335C502.126 146.94 502.126 146.55 502.126 146.154C499.817 143.784 498.171 140.648 495.655 138.503C489.063 132.895 481.874 127.287 474.467 122.615C470.363 120.021 465.284 118.338 460.931 116.14C459.467 115.402 456.897 115.017 455.928 113.786C453.645 110.87 452.398 107.175 450.634 103.78C446.942 96.667 443.311 88.899 440.038 81.415C437.809 76.313 436.35 71.281 433.567 66.702C420.206 44.735 405.821 31.475 383.544 18.442C378.8 15.671 373.094 14.577 367.065 13.147C363.83 12.952 360.589 12.753 357.354 12.558C355.379 11.733 353.325 9.31698 351.47 8.14398C344.088 3.48198 325.155 -6.66102 319.691 6.67398C316.239 15.089 324.847 23.301 327.928 27.567C330.091 30.558 332.856 33.913 334.404 37.276C335.419 39.487 335.592 41.706 336.467 44.045C338.605 49.809 340.463 56.079 343.229 61.407C344.63 64.101 346.173 66.942 347.941 69.351C349.026 70.83 350.88 71.481 351.171 73.765C349.358 76.308 349.254 80.254 348.235 83.475C343.635 97.977 345.37 115.999 352.061 126.733C354.111 130.026 358.947 137.095 365.592 134.382C371.405 132.014 370.109 124.674 371.772 118.199C372.146 116.728 371.918 115.649 372.654 114.668V114.961C374.422 118.492 376.188 122.023 377.952 125.553C381.874 131.866 388.831 138.468 394.727 142.917C397.78 145.225 400.187 149.217 404.142 150.568C404.142 150.468 404.142 150.369 404.142 150.269C404.042 150.269 403.942 150.269 403.847 150.269C403.077 149.08 401.879 148.581 400.907 147.624C398.603 145.365 396.042 142.559 394.136 139.972C388.772 132.693 384.035 124.725 379.719 116.433C377.656 112.472 375.864 108.103 374.125 104.074C373.456 102.519 373.464 100.17 372.066 99.365C370.162 102.317 367.359 104.707 365.886 108.193C363.532 113.767 363.229 120.564 362.356 127.613C361.84 127.799 362.069 127.672 361.765 127.906C357.665 126.92 356.226 122.7 354.704 119.08C350.853 109.928 350.138 95.189 353.527 84.652C354.404 81.927 358.372 73.34 356.762 70.822C355.996 68.308 353.472 66.857 352.059 64.936C350.303 62.562 348.557 59.439 347.343 56.696C344.195 49.56 342.723 41.549 339.404 34.334C337.816 30.887 335.133 27.395 332.929 24.328C330.489 20.932 327.756 18.432 325.867 14.322C325.194 12.863 324.279 10.528 325.277 9.02698C325.592 8.01398 326.042 7.59199 327.045 7.26099C328.754 5.94499 333.503 7.69899 335.282 8.43799C339.998 10.397 343.94 12.264 347.937 14.911C349.854 16.183 351.795 18.645 354.112 19.326H356.761C360.907 20.277 365.548 19.623 369.415 20.798C376.256 22.877 382.386 26.111 387.953 29.627C404.912 40.334 418.78 55.58 428.266 73.765C429.792 76.693 430.454 79.487 431.796 82.594C434.507 88.857 437.926 95.3 440.624 101.426C443.315 107.534 445.939 113.701 449.744 118.787C451.744 121.459 459.474 122.893 462.989 124.379C465.451 125.418 469.484 126.504 471.813 127.906C476.271 130.595 480.584 133.793 484.762 136.737C486.85 138.21 493.271 141.436 493.587 144.09C483.24 143.816 475.335 144.777 468.577 147.625C466.656 148.432 463.595 148.456 463.279 150.859C464.335 151.965 464.502 153.621 465.342 154.98C466.951 157.592 469.675 161.089 472.108 162.927C474.765 164.932 477.502 167.077 480.346 168.812C485.411 171.902 491.067 173.665 495.941 176.758C498.825 178.584 501.678 180.879 504.48 182.938ZM420.994 220.776V162.714H404.16V220.883C404.16 232.427 412.739 238.903 430.059 240.199C431.676 240.303 433.294 240.411 434.916 240.411H478.784V229.191H434.591C424.72 229.192 420.994 226.706 420.994 220.776Z" fill="black"/>
</svg>
