<svg width="511" height="264" viewBox="0 0 511 264" fill="none" xmlns="http://www.w3.org/2000/svg">
<path d="M120.574 68.8289H216.953V75.3864H129.409V124.741H211.734V131.298H129.409V185.484H217.957V192.042H120.574V68.8289ZM225.588 68.8289H235.828L281.207 123.015L327.589 68.8289L390.676 0L287.029 128.71L340.44 192.042H329.798L281.207 134.405L232.414 192.042H221.974L275.785 128.71L225.588 68.8289ZM344.254 75.3864V68.8289H454.087V75.3864H403.487V192.042H394.653V75.3864H344.254ZM0 68.8289H11.0435L163.326 263.9L100.396 192.042L9.23635 78.1475L8.83477 192.042H0V68.8289ZM453.197 183.506C451.392 183.506 450.038 182.308 450.038 180.761C450.038 179.214 451.392 178.017 453.197 178.017C455.024 178.017 456.356 179.214 456.356 180.761C456.356 182.308 455.024 183.506 453.197 183.506ZM461.878 176.285H466.606C466.67 178.477 468.539 179.951 471.29 179.951C474.363 179.951 476.103 178.366 476.103 175.401V156.614H480.917V175.42C480.917 180.761 477.307 183.837 471.333 183.837C465.725 183.837 461.878 180.853 461.878 176.285ZM487.213 176.046H491.983C492.391 178.569 495.271 180.172 499.418 180.172C503.286 180.172 506.123 178.459 506.123 176.101C506.123 174.075 504.317 172.86 500.213 172.03L496.216 171.202C490.608 170.078 488.051 167.757 488.051 163.853C488.051 159.119 492.563 155.969 499.332 155.969C505.628 155.969 510.227 159.119 510.506 163.595H505.821C505.37 161.145 502.878 159.617 499.268 159.617C495.464 159.617 492.928 161.182 492.928 163.576C492.928 165.474 494.561 166.56 498.601 167.371L502.018 168.089C508.378 169.36 511 171.57 511 175.567C511 180.651 506.402 183.837 499.052 183.837C492.177 183.837 487.557 180.798 487.213 176.046Z" fill="black"/>
</svg>
