<svg width="512" height="264" viewBox="0 0 512 264" fill="none" xmlns="http://www.w3.org/2000/svg">
<path d="M80.5876 140.28C80.5876 137.435 79.7674 134.8 78.4224 133.392L42.4672 95.641C41.8601 94.9823 41.1712 94.6533 40.4823 94.5934C40.4167 94.5934 40.1542 94.5934 40.1052 94.5934C39.4162 94.6533 38.7436 94.9823 38.1203 95.641L2.18159 133.392C0.836549 134.8 0 137.435 0 140.28L0.0820145 241.949C0.0820145 243.353 0.492088 244.67 1.16461 245.36C1.83713 246.079 2.65727 246.079 3.32979 245.36L24.6864 223.029C26.0314 221.558 26.8516 218.986 26.8516 216.141V168.628C26.8516 165.816 27.6717 163.182 29.0168 161.773L38.1203 152.222C38.7929 151.503 39.5309 151.178 40.302 151.178C41.04 151.178 41.7945 151.537 42.4672 152.222L51.5544 161.773C52.8994 163.182 53.7196 165.816 53.7196 168.628V216.141C53.7196 218.986 54.556 221.558 55.901 223.029L77.2576 245.36C77.9303 246.079 78.7667 246.079 79.4228 245.36C80.0789 244.67 80.5054 243.353 80.5054 241.949L80.5876 140.28ZM272.536 0.498168C271.861 -0.190165 271.042 -0.160477 270.386 0.558034C269.73 1.27655 269.321 2.56412 269.321 3.97096V104.653C269.321 105.64 269.024 106.569 268.565 107.048C268.106 107.527 267.515 107.556 267.04 107.048L258.035 97.5872C256.689 96.1799 255.033 96.1799 253.688 97.5872L217.732 135.457C216.387 136.865 215.551 139.499 215.551 142.316V218.085C215.551 220.931 216.371 223.536 217.716 224.945L253.671 262.844C255.016 264.252 256.673 264.252 258.017 262.844L293.991 224.945C295.334 223.508 296.156 220.902 296.156 218.085V29.2089C296.156 26.3349 295.303 23.7003 293.925 22.293L272.536 0.498168ZM269.205 193.21C269.205 193.929 269.008 194.585 268.665 194.916L256.311 207.906C255.984 208.266 255.558 208.266 255.23 207.906L242.878 194.916C242.534 194.557 242.337 193.895 242.337 193.21V167.191C242.337 166.472 242.55 165.816 242.878 165.486L255.23 152.461C255.558 152.102 255.984 152.102 256.311 152.461L268.665 165.486C268.993 165.845 269.205 166.506 269.205 167.191V193.21ZM401.2 166.506C402.528 165.098 403.365 162.492 403.365 159.646V141.296C403.365 138.45 402.544 135.878 401.2 134.441L365.473 96.5693C364.13 95.1323 362.471 95.1323 361.127 96.5693L325.172 134.441C323.826 135.849 323.007 138.484 323.007 141.296V217.041C323.007 219.882 323.844 222.516 325.203 223.924L360.93 261.076C362.243 262.456 363.867 262.456 365.195 261.11L386.797 239.195C387.469 238.505 387.897 237.188 387.913 235.751C387.928 234.314 387.503 232.997 386.831 232.278L350.645 194.374C349.973 193.69 349.564 192.372 349.564 190.935V167.191C349.564 165.787 349.973 164.47 350.645 163.752L361.915 151.925C362.586 151.235 363.408 151.235 364.08 151.925L375.349 163.752C376.021 164.47 376.43 165.754 376.43 167.191V185.872C376.43 187.28 376.84 188.598 377.514 189.316C378.186 190.035 379.023 190.006 379.695 189.316L401.2 166.506ZM145.986 96.1799C147.331 94.773 148.988 94.773 150.333 96.1799L186.288 134.053C187.633 135.457 188.453 138.062 188.453 140.908V216.711C188.453 219.556 187.617 222.157 186.288 223.565L150.333 261.469C148.988 262.873 147.331 262.873 145.986 261.469L110.031 223.565C108.686 222.157 107.866 219.522 107.866 216.711V140.908C107.866 138.062 108.686 135.457 110.031 134.053L145.986 96.1799ZM471.011 262.547C469.78 262.547 468.534 261.948 467.45 260.808L456.133 248.593C454.443 246.859 455.28 246.261 455.821 245.901C458.067 244.464 458.526 244.134 460.938 241.648C461.185 241.379 461.529 241.499 461.791 241.767L470.486 251.199C470.796 251.53 471.239 251.53 471.536 251.199L505.439 215.484C505.751 215.154 505.948 214.493 505.948 213.808V142.373C505.948 141.684 505.751 141.027 505.423 140.668L471.536 104.982C471.224 104.653 470.796 104.653 470.486 104.982L436.596 140.668C436.268 140.999 436.056 141.684 436.056 142.373V213.808C436.056 214.493 436.268 215.125 436.581 215.451L445.863 225.242C450.9 229.855 453.983 224.432 453.983 218.986V148.481C453.983 147.494 454.427 146.713 454.968 146.713H459.267C459.807 146.713 460.251 147.494 460.251 148.481V218.986C460.251 231.258 456.592 238.295 450.212 238.295C448.26 238.295 446.701 238.295 442.404 234.434L433.513 225.093C431.316 222.789 429.954 218.445 429.954 213.808V142.373C429.954 137.732 431.316 133.392 433.513 131.088L467.418 95.3416C469.568 93.1262 472.42 93.1262 474.536 95.3416L508.441 131.088C510.641 133.392 512 137.732 512 142.373V213.808C512 218.445 510.641 222.756 508.441 225.093L474.536 260.808C473.454 261.948 472.224 262.547 470.961 262.547H471.011ZM481.491 213.358C466.647 213.358 463.547 200.932 463.547 190.485C463.547 189.498 463.972 188.717 464.531 188.717H468.911C469.402 188.717 469.812 189.378 469.877 190.245C470.533 198.389 472.502 202.518 481.491 202.518C488.626 202.518 491.679 199.557 491.679 192.669C491.679 188.689 490.826 185.724 479.719 183.75C470.452 182.074 464.712 178.328 464.712 164.796C464.712 152.313 470.486 144.86 480.147 144.86C491.004 144.86 496.384 151.743 497.059 166.506C497.09 167.014 496.993 167.493 496.796 167.881C496.6 168.269 496.353 168.451 496.075 168.451H491.679C491.219 168.451 490.826 167.852 490.726 167.042C489.676 158.482 487.102 155.728 480.147 155.728C472.355 155.728 471.436 160.695 471.436 164.408C471.436 168.93 472.502 170.218 483.034 172.762C493.45 175.276 498.403 178.84 498.403 192.19C498.403 205.665 492.232 213.358 481.491 213.358ZM362.752 162.971C363.014 162.703 363.324 162.703 363.586 162.971L370.494 170.247C370.756 170.515 370.919 171.023 370.919 171.564V186.112C370.919 186.653 370.756 187.161 370.494 187.429L363.586 194.705C363.324 194.973 363.014 194.973 362.752 194.705L355.863 187.429C355.6 187.161 355.45 186.653 355.45 186.112V171.564C355.45 171.023 355.616 170.515 355.863 170.247L362.752 162.971Z" fill="#444444"/>
</svg>
