<svg width="512" height="512" viewBox="0 0 512 512" fill="none" xmlns="http://www.w3.org/2000/svg">
<path d="M256 369.92C110.054 369.92 0 322.176 0 256C0 189.824 110.054 140.8 256 140.8C401.946 140.8 512 189.824 512 256C512 322.176 401.946 369.92 256 369.92ZM256 178.33C131.469 178.33 36.8 220.134 36.8 256.806C36.8 293.478 131.469 333.67 256 333.67C380.531 333.67 475.2 291.866 475.2 255.194C475.2 218.522 380.531 178.33 256 178.33Z" fill="#E1E1E1"/>
<path d="M158.746 486.4C146.829 486.4 135.949 483.635 126.388 478.182C110.772 469.261 99.5717 453.504 93.9781 432.589C79.3093 377.779 102.977 285.619 154.305 197.785C214.529 94.8085 294.49 25.6373 353.267 25.6373C365.171 25.6373 376.051 28.4021 385.613 33.8549C401.203 42.7509 412.416 58.4949 418.01 79.3973C432.691 134.207 409.011 226.38 357.658 314.214C297.485 417.203 217.537 486.4 158.746 486.4ZM353.267 64.0373C316.301 64.0373 245.633 117.708 187.457 217.164C134.682 307.482 119.207 382.4 131.085 422.656C134.298 433.523 138.829 441.062 145.434 444.826C175.655 462.08 258.189 408.346 324.518 294.848C377.318 204.517 394.406 131.199 380.915 89.3429C377.446 78.5781 373.184 70.9749 366.592 67.2245C362.842 65.0741 358.477 64.0373 353.267 64.0373Z" fill="#E1E1E1"/>
<path d="M353.267 486.362C294.426 486.349 214.477 417.178 154.305 314.214C102.977 226.381 79.3093 134.208 93.9781 79.4112C99.5717 58.496 110.772 42.7392 126.375 33.8304C135.949 28.3648 146.829 25.6 158.721 25.6C217.537 25.6 297.472 94.7968 357.658 197.786C408.998 285.606 432.666 377.779 417.997 432.602C412.39 453.504 401.19 469.248 385.613 478.144C376.051 483.597 365.158 486.362 353.267 486.362ZM158.721 64C153.511 64 149.159 65.0496 145.409 67.1744C138.817 70.9376 134.221 78.4512 131.073 89.344C119.194 130.406 134.669 204.531 187.444 294.848C245.569 394.291 316.25 447.962 353.254 447.962C358.477 447.962 362.829 446.912 366.579 444.774C373.158 441.037 377.882 433.562 380.89 422.656C391.987 382.387 377.293 307.456 324.506 217.152C266.381 117.683 195.713 64 158.721 64Z" fill="#E1E1E1"/>
<path d="M300.8 256C300.8 280.768 280.768 300.8 256 300.8C231.232 300.8 211.2 280.768 211.2 256C211.2 231.232 231.232 211.2 256 211.2C280.768 211.2 300.8 231.232 300.8 256Z" fill="white"/>
<path d="M256 307.2C227.763 307.2 204.8 284.237 204.8 256C204.8 227.763 227.763 204.8 256 204.8C284.237 204.8 307.2 227.763 307.2 256C307.2 284.237 284.237 307.2 256 307.2ZM256 217.6C234.829 217.6 217.6 234.829 217.6 256C217.6 277.171 234.829 294.4 256 294.4C277.171 294.4 294.4 277.171 294.4 256C294.4 234.829 277.171 217.6 256 217.6Z" fill="#E1E1E1"/>
<path d="M256 359.273C119.629 359.273 12.8 313.91 12.8 256.003C12.8 198.094 119.629 152.731 256 152.731C392.371 152.731 499.2 198.094 499.2 256.003C499.2 313.91 392.371 359.273 256 359.273ZM256 165.531C131.11 165.531 25.6 206.965 25.6 256.003C25.6 305.039 131.11 346.473 256 346.473C380.89 346.473 486.4 305.052 486.4 256.003C486.4 206.952 380.89 165.531 256 165.531Z" fill="white"/>
<path d="M158.746 473.6C149.082 473.6 140.34 471.398 132.723 467.059C119.975 459.776 111.104 447.066 106.33 429.274C92.4931 377.6 115.661 289.267 165.338 204.236C222.451 106.623 299.725 38.4374 353.267 38.4374C362.918 38.4374 371.674 40.639 379.277 44.9782C392.013 52.2486 400.883 64.9462 405.658 82.7126C419.494 134.386 396.326 222.719 346.624 307.763C289.549 405.402 212.301 473.6 158.746 473.6ZM353.267 51.2374C304.832 51.2374 230.451 118.297 176.41 210.7C129.114 291.661 105.92 378.163 118.707 425.971C122.56 440.346 129.408 450.419 139.085 455.949C144.73 459.162 151.335 460.8 158.733 460.8C207.181 460.8 281.549 393.728 335.552 301.299C382.874 220.325 406.08 133.81 393.267 86.0278C389.427 71.679 382.579 61.6054 372.915 56.1014C367.27 52.8758 360.666 51.2374 353.267 51.2374Z" fill="white"/>
<path d="M353.267 473.562C299.674 473.549 222.401 405.376 165.352 307.763C115.662 222.733 92.5069 134.4 106.344 82.7264C111.105 64.9344 119.976 52.224 132.737 44.9408C140.34 40.6016 149.083 38.4 158.721 38.4C212.289 38.4 289.549 106.598 346.611 204.237C396.314 289.254 419.469 377.587 405.619 429.286C400.87 447.066 392 459.763 379.264 467.021C371.661 471.36 362.918 473.562 353.267 473.562ZM158.721 51.2C151.336 51.2 144.718 52.8384 139.073 56.0512C129.396 61.5808 122.548 71.6544 118.696 86.0288C105.908 133.824 129.102 220.339 176.398 301.299C230.401 393.69 304.794 460.749 353.267 460.762C360.666 460.762 367.283 459.123 372.928 455.898C382.579 450.394 389.427 440.32 393.267 425.971C406.067 378.163 382.874 291.648 335.565 210.701C281.549 118.285 207.195 51.2 158.721 51.2Z" fill="white"/>
</svg>
