<svg width="258" height="44" viewBox="0 0 258 44" fill="none" xmlns="http://www.w3.org/2000/svg">
<g clip-path="url(#clip0_0_1)">
<path d="M97.58 34.53C97.4485 34.5401 97.3163 34.5241 97.191 34.4829C97.0657 34.4417 96.9498 34.3762 96.85 34.29C96.6585 34.1016 96.5115 33.8726 96.42 33.62L91.27 16.79C91.2198 16.6765 91.1926 16.5541 91.19 16.43C91.1868 16.3278 91.2067 16.2261 91.2483 16.1326C91.2898 16.0391 91.3519 15.9562 91.43 15.89C91.4992 15.8199 91.5818 15.7643 91.6728 15.7266C91.7638 15.6888 91.8615 15.6696 91.96 15.67H93.55C93.6629 15.6625 93.7761 15.6781 93.8827 15.716C93.9893 15.7538 94.0871 15.813 94.17 15.89C94.2908 16.0041 94.3892 16.1397 94.46 16.29L98.46 29.96L102.78 16.43C102.841 16.2378 102.948 16.063 103.09 15.92C103.183 15.8296 103.295 15.7604 103.418 15.7172C103.54 15.6741 103.671 15.658 103.8 15.67H105.03C105.294 15.655 105.552 15.7449 105.75 15.92C105.901 16.0529 106.003 16.2324 106.04 16.43L110.38 30L114.38 16.33C114.434 16.1437 114.549 15.9811 114.707 15.8685C114.865 15.756 115.056 15.7001 115.25 15.71H116.84C116.941 15.7073 117.042 15.725 117.136 15.7622C117.229 15.7993 117.315 15.855 117.387 15.926C117.459 15.9969 117.516 16.0817 117.554 16.1752C117.592 16.2687 117.611 16.369 117.61 16.47C117.607 16.5941 117.58 16.7165 117.53 16.83L112.38 33.66C112.328 33.9183 112.195 34.1531 112 34.33C111.779 34.5035 111.501 34.589 111.22 34.57H109.81C109.53 34.5828 109.254 34.4979 109.03 34.33C108.812 34.1658 108.663 33.9273 108.61 33.66L104.4 20.66L100.19 33.66C100.117 33.9215 99.9674 34.155 99.76 34.33C99.5303 34.5024 99.2467 34.5875 98.96 34.57L97.58 34.53Z" fill="white"/>
<path d="M128.88 34.89C127.283 34.9607 125.694 34.6161 124.27 33.89C123.063 33.2129 122.079 32.1981 121.44 30.97C120.77 29.6466 120.398 28.1925 120.35 26.71C120.35 26.3 120.35 25.77 120.35 25.13C120.35 24.49 120.35 23.98 120.35 23.59C120.396 22.0984 120.775 20.636 121.46 19.31C122.116 18.0926 123.104 17.0868 124.31 16.41C125.734 15.719 127.297 15.36 128.88 15.36C130.463 15.36 132.026 15.719 133.45 16.41C134.656 17.0868 135.644 18.0926 136.3 19.31C136.986 20.6349 137.362 22.0984 137.4 23.59C137.4 23.98 137.4 24.49 137.4 25.13C137.4 25.77 137.4 26.3 137.4 26.71C137.362 28.1939 136.989 29.65 136.31 30.97C135.676 32.2019 134.691 33.2181 133.48 33.89C132.06 34.6175 130.474 34.9622 128.88 34.89ZM128.88 32.1C129.546 32.1291 130.21 32.0166 130.828 31.7701C131.447 31.5236 132.007 31.1487 132.47 30.67C133.444 29.4947 133.959 28.0061 133.92 26.48C133.92 26.12 133.92 25.66 133.92 25.1C133.92 24.54 133.92 24.1 133.92 23.72C133.959 22.1939 133.444 20.7053 132.47 19.53C132.007 19.0513 131.447 18.6764 130.828 18.4299C130.21 18.1834 129.546 18.0709 128.88 18.1C128.212 18.0719 127.545 18.1847 126.923 18.4311C126.301 18.6774 125.738 19.0518 125.27 19.53C124.286 20.6988 123.776 22.1937 123.84 23.72C123.84 24.08 123.84 24.54 123.84 25.1C123.84 25.66 123.84 26.1 123.84 26.48C123.776 28.0063 124.286 29.5012 125.27 30.67C125.738 31.1482 126.301 31.5226 126.923 31.769C127.545 32.0153 128.212 32.1281 128.88 32.1Z" fill="white"/>
<path d="M142.81 34.53C142.7 34.5326 142.59 34.5131 142.488 34.4725C142.385 34.4318 142.292 34.371 142.214 34.2935C142.135 34.216 142.073 34.1235 142.031 34.0215C141.989 33.9196 141.969 33.8102 141.97 33.7V16.54C141.966 16.3099 142.052 16.0873 142.21 15.92C142.285 15.8365 142.378 15.7708 142.482 15.7276C142.586 15.6843 142.698 15.6647 142.81 15.67H144.47C144.585 15.6664 144.7 15.6867 144.806 15.7298C144.913 15.7728 145.01 15.8376 145.09 15.92C145.173 16.0002 145.239 16.0966 145.284 16.2032C145.329 16.3098 145.351 16.4244 145.35 16.54V18.14C145.81 17.3314 146.508 16.6851 147.35 16.29C148.29 15.8578 149.316 15.6457 150.35 15.67H151.8C151.908 15.6657 152.016 15.6849 152.116 15.7264C152.216 15.7678 152.306 15.8304 152.38 15.91C152.527 16.0707 152.606 16.2822 152.6 16.5V18C152.604 18.1064 152.586 18.2125 152.549 18.3121C152.511 18.4117 152.453 18.5028 152.38 18.58C152.304 18.6543 152.213 18.7122 152.113 18.7501C152.013 18.7879 151.907 18.8049 151.8 18.8H149.62C149.056 18.7698 148.492 18.8554 147.962 19.0515C147.432 19.2475 146.948 19.5499 146.54 19.94C146.154 20.3546 145.854 20.8427 145.66 21.3752C145.466 21.9078 145.381 22.4739 145.41 23.04V33.7C145.415 33.8107 145.394 33.921 145.351 34.023C145.308 34.125 145.243 34.2162 145.16 34.29C145.078 34.3691 144.981 34.4311 144.874 34.4723C144.768 34.5135 144.654 34.5331 144.54 34.53H142.81Z" fill="white"/>
<path d="M156.63 34.53C156.52 34.5327 156.41 34.5132 156.308 34.4726C156.205 34.4319 156.112 34.3711 156.034 34.2936C155.955 34.2161 155.893 34.1236 155.851 34.0216C155.809 33.9196 155.789 33.8103 155.79 33.7V9.61004C155.786 9.49904 155.805 9.38835 155.845 9.28503C155.886 9.18171 155.948 9.08803 156.027 9.00995C156.106 8.93187 156.201 8.8711 156.304 8.83152C156.408 8.79194 156.519 8.77441 156.63 8.78004H158.33C158.451 8.76527 158.574 8.77733 158.69 8.81535C158.805 8.85337 158.911 8.91643 159 9.00004C159.142 9.16689 159.217 9.38086 159.21 9.60004V33.7C159.219 33.9164 159.143 34.1278 159 34.29C158.92 34.3722 158.823 34.4361 158.716 34.4775C158.609 34.5189 158.495 34.5368 158.38 34.53H156.63Z" fill="white"/>
<path d="M171.46 34.89C170.272 34.9212 169.092 34.6818 168.01 34.19C167.08 33.7403 166.269 33.0794 165.64 32.26C165.01 31.4316 164.542 30.4918 164.26 29.49C163.953 28.415 163.775 27.3072 163.73 26.19C163.73 25.8 163.73 25.44 163.73 25.1C163.73 24.76 163.73 24.4 163.73 24.01C163.777 22.9062 163.955 21.8119 164.26 20.75C164.546 19.7404 165.013 18.7916 165.64 17.95C166.261 17.1224 167.07 16.4541 168 16C169.082 15.5081 170.262 15.2688 171.45 15.3C172.678 15.2538 173.898 15.515 175 16.06C175.901 16.5443 176.697 17.2039 177.34 18V9.60998C177.335 9.49957 177.353 9.38939 177.393 9.2862C177.433 9.18301 177.493 9.08902 177.57 9.00998C177.732 8.85776 177.948 8.77519 178.17 8.77998H179.91C180.132 8.77519 180.348 8.85776 180.51 9.00998C180.587 9.08902 180.647 9.18301 180.687 9.2862C180.727 9.38939 180.745 9.49957 180.74 9.60998V33.7C180.746 33.809 180.728 33.918 180.688 34.0197C180.649 34.1214 180.588 34.2136 180.51 34.29C180.432 34.369 180.338 34.4311 180.235 34.4724C180.132 34.5137 180.021 34.5333 179.91 34.53H178.28C178.165 34.5368 178.051 34.5188 177.944 34.4774C177.837 34.436 177.74 34.3721 177.66 34.29C177.513 34.1293 177.434 33.9177 177.44 33.7V32.17C176.802 32.9752 176.001 33.6363 175.09 34.11C173.963 34.6653 172.716 34.9333 171.46 34.89ZM172.22 31.95C173.252 32.0071 174.274 31.7147 175.12 31.12C175.843 30.5688 176.408 29.8378 176.76 29C177.112 28.166 177.309 27.2747 177.34 26.37C177.34 25.98 177.34 25.52 177.34 24.97C177.34 24.42 177.34 23.97 177.34 23.58C177.305 22.7123 177.101 21.8597 176.74 21.07C176.367 20.2692 175.791 19.5798 175.07 19.07C174.229 18.5085 173.231 18.2284 172.22 18.27C171.177 18.2191 170.146 18.5067 169.28 19.09C168.56 19.6333 168.017 20.378 167.72 21.23C167.402 22.1487 167.221 23.1088 167.18 24.08C167.18 24.78 167.18 25.48 167.18 26.18C167.221 27.1512 167.402 28.1113 167.72 29.03C168.02 29.8805 168.562 30.6246 169.28 31.17C170.145 31.7568 171.176 32.048 172.22 32V31.95Z" fill="white"/>
<path d="M193.51 34.53C192.359 34.579 191.217 34.3091 190.21 33.75C189.369 33.2349 188.719 32.4588 188.36 31.54C187.951 30.4578 187.754 29.3067 187.78 28.15V18.57H185C184.889 18.5757 184.779 18.5582 184.676 18.5185C184.572 18.4788 184.479 18.4179 184.4 18.3396C184.322 18.2614 184.261 18.1676 184.221 18.0643C184.182 17.961 184.164 17.8505 184.17 17.74V16.5C184.166 16.3898 184.184 16.28 184.225 16.1774C184.265 16.0748 184.326 15.9816 184.404 15.9037C184.482 15.8258 184.575 15.7648 184.677 15.7246C184.78 15.6843 184.89 15.6657 185 15.67H187.83V9.60996C187.826 9.49895 187.845 9.38827 187.885 9.28495C187.926 9.18163 187.988 9.08795 188.067 9.00987C188.146 8.93179 188.241 8.87102 188.344 8.83144C188.448 8.79185 188.559 8.77432 188.67 8.77996H190.37C190.592 8.77517 190.808 8.85774 190.97 9.00996C191.047 9.08899 191.107 9.18299 191.147 9.28618C191.187 9.38936 191.205 9.49955 191.2 9.60996V15.67H195.7C195.811 15.6666 195.922 15.6862 196.025 15.7275C196.128 15.7688 196.222 15.8309 196.3 15.91C196.379 15.9859 196.442 16.0777 196.483 16.1793C196.524 16.281 196.544 16.3903 196.54 16.5V17.74C196.543 17.8511 196.524 17.9617 196.482 18.0649C196.441 18.1682 196.379 18.2618 196.3 18.34C196.138 18.4922 195.922 18.5748 195.7 18.57H191.2V27.89C191.156 28.8218 191.356 29.7489 191.78 30.58C192.001 30.9197 192.311 31.1925 192.675 31.3688C193.04 31.545 193.447 31.6181 193.85 31.58H196C196.111 31.5735 196.221 31.5906 196.325 31.6303C196.428 31.67 196.522 31.7312 196.6 31.81C196.679 31.8881 196.741 31.9818 196.782 32.085C196.824 32.1882 196.843 32.2988 196.84 32.41V33.7C196.841 33.8102 196.821 33.9196 196.779 34.0215C196.737 34.1235 196.675 34.216 196.596 34.2935C196.518 34.371 196.425 34.4319 196.322 34.4725C196.22 34.5131 196.11 34.5327 196 34.53H193.51Z" fill="white"/>
<path d="M207.84 34.89C206.734 34.9522 205.628 34.7794 204.594 34.3829C203.559 33.9865 202.621 33.3754 201.84 32.59C200.283 30.864 199.418 28.6243 199.41 26.3C199.41 25.98 199.41 25.58 199.41 25.08C199.41 24.58 199.41 24.18 199.41 23.87C199.471 22.2931 199.881 20.7494 200.61 19.35C201.267 18.0979 202.266 17.0577 203.49 16.35C204.874 15.6417 206.409 15.2816 207.964 15.3008C209.518 15.3199 211.044 15.7178 212.41 16.46C213.673 17.2449 214.667 18.396 215.26 19.76C215.948 21.3358 216.289 23.0409 216.26 24.76V25.38C216.267 25.4945 216.249 25.6091 216.207 25.7161C216.166 25.8231 216.102 25.9199 216.02 26C215.858 26.1434 215.646 26.2187 215.43 26.21H202.91V26.54C202.943 27.497 203.164 28.4381 203.56 29.31C203.92 30.1436 204.496 30.8654 205.23 31.4C205.989 31.9444 206.906 32.2254 207.84 32.2C208.584 32.2256 209.324 32.0891 210.01 31.8C210.527 31.5787 211.006 31.2785 211.43 30.91C211.692 30.6859 211.933 30.4381 212.15 30.17C212.278 29.9491 212.452 29.7581 212.66 29.61C212.845 29.5393 213.042 29.5087 213.24 29.52H215C215.216 29.5108 215.429 29.5781 215.6 29.71C215.678 29.7806 215.738 29.8699 215.773 29.9694C215.808 30.069 215.817 30.1758 215.8 30.28C215.726 30.7632 215.526 31.2184 215.22 31.6C214.785 32.1931 214.259 32.7129 213.66 33.14C212.913 33.6862 212.082 34.1083 211.2 34.39C210.115 34.7406 208.98 34.9095 207.84 34.89ZM202.91 23.72H212.84V23.61C212.857 22.6119 212.655 21.6222 212.25 20.71C211.87 19.8957 211.271 19.2031 210.52 18.71C209.723 18.1957 208.788 17.9343 207.84 17.96C206.921 17.9279 206.014 18.1743 205.238 18.6668C204.462 19.1594 203.852 19.8751 203.49 20.72C203.088 21.633 202.89 22.6226 202.91 23.62V23.72Z" fill="white"/>
<path d="M228.26 34.89C226.72 34.9283 225.195 34.5847 223.82 33.89C222.591 33.2356 221.584 32.2294 220.93 31C220.217 29.614 219.843 28.0786 219.84 26.52C219.84 26.16 219.84 25.67 219.84 25.07C219.84 24.47 219.84 23.98 219.84 23.62C219.843 22.0614 220.217 20.5259 220.93 19.14C221.588 17.918 222.593 16.919 223.82 16.27C225.195 15.5752 226.72 15.2317 228.26 15.27C229.489 15.2398 230.713 15.4364 231.87 15.85C232.784 16.1803 233.626 16.6827 234.35 17.33C234.967 17.8933 235.467 18.573 235.82 19.33C236.127 19.9552 236.307 20.6349 236.35 21.33C236.365 21.4373 236.352 21.5466 236.314 21.6479C236.275 21.7492 236.212 21.8393 236.13 21.91C235.954 22.0511 235.736 22.1287 235.51 22.13H233.77C233.575 22.1429 233.382 22.0823 233.23 21.96C233.074 21.7974 232.948 21.6076 232.86 21.4C232.56 20.395 231.938 19.5166 231.09 18.9C230.252 18.3879 229.282 18.134 228.3 18.17C227.65 18.144 227.002 18.2493 226.394 18.4796C225.785 18.7098 225.23 19.0602 224.76 19.51C223.739 20.7107 223.213 22.2555 223.29 23.83C223.29 24.7 223.29 25.55 223.29 26.37C223.204 27.9487 223.731 29.4998 224.76 30.7C225.233 31.143 225.79 31.4864 226.398 31.7097C227.006 31.9331 227.653 32.0318 228.3 32C229.282 32.036 230.252 31.7821 231.09 31.27C231.938 30.6534 232.56 29.7749 232.86 28.77C232.948 28.5623 233.074 28.3725 233.23 28.21C233.382 28.0877 233.575 28.027 233.77 28.04H235.51C235.736 28.0413 235.954 28.1188 236.13 28.26C236.212 28.3307 236.275 28.4207 236.314 28.522C236.352 28.6233 236.365 28.7326 236.35 28.84C236.315 29.3731 236.204 29.8984 236.02 30.4C235.798 30.9839 235.488 31.5303 235.1 32.02C234.65 32.5803 234.117 33.0692 233.52 33.47C232.82 33.9193 232.054 34.2567 231.25 34.47C230.279 34.7522 229.272 34.8936 228.26 34.89Z" fill="white"/>
<path d="M241.53 34.53C241.42 34.5342 241.31 34.5156 241.207 34.4754C241.105 34.4352 241.012 34.3742 240.934 34.2963C240.856 34.2184 240.795 34.1252 240.755 34.0226C240.714 33.92 240.696 33.8101 240.7 33.7V9.61001C240.694 9.4995 240.712 9.38901 240.751 9.28571C240.791 9.1824 240.852 9.08858 240.93 9.01033C241.009 8.93208 241.102 8.87114 241.206 8.83147C241.309 8.79179 241.419 8.77426 241.53 8.78001H243.35C243.468 8.76687 243.587 8.77977 243.699 8.81778C243.812 8.85579 243.914 8.918 244 9.00001C244.15 9.16322 244.229 9.37884 244.22 9.60001V18.05C244.872 17.2272 245.685 16.5466 246.61 16.05C247.729 15.5041 248.966 15.243 250.21 15.29C251.611 15.236 252.999 15.5829 254.21 16.29C255.31 16.9798 256.183 17.9779 256.72 19.16C257.308 20.5017 257.598 21.9552 257.57 23.42V33.7C257.575 33.8081 257.558 33.9162 257.52 34.0176C257.483 34.119 257.425 34.2117 257.35 34.29C257.271 34.3732 257.174 34.4379 257.067 34.4794C256.96 34.5209 256.845 34.5382 256.73 34.53H254.92C254.809 34.5333 254.698 34.5137 254.595 34.4724C254.492 34.4312 254.398 34.3691 254.32 34.29C254.242 34.2136 254.181 34.1215 254.142 34.0198C254.102 33.918 254.084 33.809 254.09 33.7V23.65C254.184 22.2093 253.743 20.7847 252.85 19.65C252.393 19.1541 251.831 18.7672 251.204 18.518C250.577 18.2687 249.903 18.1635 249.23 18.21C248.558 18.1822 247.887 18.2961 247.262 18.5442C246.637 18.7922 246.07 19.169 245.6 19.65C245.116 20.192 244.745 20.8247 244.508 21.5114C244.271 22.1981 244.173 22.9251 244.22 23.65V33.7C244.225 33.8081 244.208 33.9162 244.17 34.0176C244.133 34.119 244.075 34.2117 244 34.29C243.922 34.3719 243.827 34.4358 243.721 34.4772C243.616 34.5186 243.503 34.5367 243.39 34.53H241.53Z" fill="white"/>
<path d="M14.63 29.72L20.31 13H25.41L30.78 29.89L36.39 13.04H41.66L33.78 36.86H27.86L22.69 20.7L17.22 36.8L14.63 29.72Z" fill="white"/>
<path d="M51.45 17.62H42.37L43.85 13.14L64.59 13.22V17.71H56.97L56.89 37H51.38L51.45 17.62Z" fill="white"/>
<path d="M14.93 36.79L4.72 7.23999H0L10.21 36.77L14.93 36.79Z" fill="white"/>
<path d="M77.5 0.199951V43.57" stroke="white" stroke-width="0.4" stroke-miterlimit="10" stroke-linecap="round"/>
</g>
<defs>
<clipPath id="clip0_0_1">
<rect width="257.53" height="43.77" fill="white"/>
</clipPath>
</defs>
</svg>
